<svg width="370" height="52" viewBox="0 0 370 52" fill="none" xmlns="http://www.w3.org/2000/svg">
<path d="M11.664 51.12C5.25604 51.12 4.03523e-05 46.008 4.03523e-05 39.888V11.88C4.03523e-05 5.68799 5.25604 0.719992 11.664 0.719992H17.712C24.192 0.719992 29.448 5.68799 29.448 11.88V39.888C29.448 46.08 24.192 51.12 17.712 51.12H11.664ZM3.45604 39.888C3.45604 44.064 7.20004 47.52 11.664 47.52H17.712C20.016 47.52 22.104 46.584 23.616 45.144L3.52804 10.872C3.45604 11.232 3.45604 11.52 3.45604 11.88V39.888ZM5.40004 6.91199L25.704 41.688C25.848 41.112 25.92 40.464 25.92 39.888V11.88C25.92 7.63199 22.32 4.24799 17.712 4.24799H11.664C9.14404 4.24799 6.91204 5.25599 5.40004 6.91199ZM62.9444 25.56C62.9444 21.384 59.4884 17.928 55.3124 17.928H50.5604L41.9924 23.688V51.12H38.4644V14.4H41.9924V19.656L49.4084 14.4H55.3124C61.4324 14.4 66.4724 19.368 66.4724 25.56V51.12H62.9444V25.56ZM87.007 51.12C80.887 51.12 75.847 46.008 75.847 39.888V25.56C75.847 19.368 80.887 14.4 87.007 14.4H92.767C98.959 14.4 103.855 19.368 103.855 25.56V32.616H79.375V39.888C79.375 44.064 82.831 47.52 87.007 47.52H92.767C96.943 47.52 100.327 44.064 100.327 39.888V38.736H103.855V39.888C103.855 46.08 98.887 51.12 92.767 51.12H87.007ZM79.375 29.592H100.327V25.56C100.327 21.312 97.015 17.928 92.767 17.928H87.007C82.759 17.928 79.375 21.312 79.375 25.56V29.592ZM119.543 0.719992V20.88H138.263V0.719992H145.463V51.12H138.263V28.08H119.543V51.12H112.343V0.719992H119.543ZM165.916 51.12C158.788 51.12 152.956 45.288 152.956 38.16V27.36C152.956 20.16 158.788 14.4 165.916 14.4H171.46L177.436 18.432V14.4H184.636V51.12H177.436V47.088L171.46 51.12H165.916ZM160.156 38.16C160.156 41.328 162.748 43.92 165.916 43.92H169.228L177.436 38.376V27.144L169.228 21.6H165.916C162.748 21.6 160.156 24.192 160.156 27.36V38.16ZM205.432 51.12C198.304 51.12 192.472 45.216 192.472 38.088V27.36C192.472 20.16 198.304 14.4 205.432 14.4H211.192C218.392 14.4 224.152 20.16 224.152 27.36V28.08H216.952V27.36C216.952 24.12 214.432 21.6 211.192 21.6H205.432C202.192 21.6 199.672 24.192 199.672 27.36V38.088C199.672 41.256 202.264 43.848 205.432 43.848H211.192C214.36 43.848 216.952 41.256 216.952 38.088V37.368H224.152V38.088C224.152 45.216 218.392 51.12 211.192 51.12H205.432ZM231.383 51.12V-7.62939e-06H238.583V29.16H245.279L254.567 14.4H263.063L251.543 32.76L263.063 51.12H254.567L245.279 36.36H238.583V51.12H231.383ZM278.768 51.12C271.64 51.12 265.808 45.216 265.808 38.088V27.36C265.808 20.16 271.64 14.4 278.768 14.4H284.528C291.512 14.4 297.128 19.8 297.488 26.64V34.416H273.008V38.088C273.008 41.256 275.6 43.848 278.768 43.848H284.528C287.696 43.848 290.288 41.256 290.288 38.088V37.368H297.488V38.088C297.488 45.216 291.728 51.12 284.528 51.12H278.768ZM273.008 28.656H290.288V27.36C290.288 24.12 287.768 21.6 284.528 21.6H278.768C275.528 21.6 273.008 24.192 273.008 27.36V28.656ZM305.282 51.12V14.4H312.482V19.944L320.618 14.4H322.706C329.33 14.4 334.802 20.16 334.802 27.36V30.24H327.602V27.36C327.602 24.192 325.586 21.6 322.706 21.6H322.058L312.482 28.008V51.12H305.282ZM350.875 51.12C343.891 51.12 338.707 46.584 338.707 40.464V39.024H345.907V40.464C345.907 42.768 347.779 44.424 350.875 44.424H357.427C360.811 44.424 362.467 43.056 362.467 40.968C362.467 32.832 339.211 38.088 339.211 24.12C339.211 18.288 343.891 14.4 350.731 14.4H356.923C363.403 14.4 368.443 19.08 368.443 25.128V25.776H361.243V25.128C361.243 22.824 359.443 21.096 356.923 21.096H350.731C347.707 21.096 346.411 22.32 346.411 24.12C346.411 29.952 369.667 26.28 369.667 40.968C369.667 47.016 364.699 51.12 357.427 51.12H350.875Z" fill="url(#paint0_linear_21_3)"/>
<defs>
<linearGradient id="paint0_linear_21_3" x1="-5.18396" y1="23.12" x2="372.816" y2="23.12" gradientUnits="userSpaceOnUse">
<stop stop-color="#00FF11"/>
<stop offset="1" stop-color="#BDFFBD"/>
</linearGradient>
</defs>
</svg>
