<svg width="356" height="73" viewBox="0 0 356 73" fill="none" xmlns="http://www.w3.org/2000/svg">
<path d="M20.736 54.144C10.584 54.144 -2.33948e-06 46.08 -2.33948e-06 32.256C-2.33948e-06 18.288 10.224 10.296 20.88 10.296C26.352 10.296 31.248 12.456 34.344 16.128V-1.90735e-06H44.136V53.28H34.416V47.808C31.32 51.768 26.28 54.144 20.736 54.144ZM22.32 45.216C29.592 45.216 34.92 39.384 34.92 32.112C34.92 24.912 29.592 19.152 22.32 19.152C15.12 19.152 9.576 24.84 9.576 32.112C9.576 39.456 15.12 45.216 22.32 45.216ZM49.6727 53.28V11.16H59.3207V17.424C61.2647 13.248 64.8647 11.16 70.1207 11.16C73.2167 11.16 75.5927 11.88 77.5367 12.96L73.8647 22.176C72.4247 21.24 70.8407 20.52 68.0327 20.52C62.3447 20.52 59.3927 23.544 59.3927 30.816V53.28H49.6727ZM99.7222 54.144C87.5542 54.144 77.9062 44.352 77.9062 32.256C77.9062 19.944 87.5542 10.296 99.7222 10.296C111.818 10.296 121.538 19.944 121.538 32.256C121.538 44.352 111.818 54.144 99.7222 54.144ZM99.7222 45C106.634 45 111.962 39.24 111.962 32.256C111.962 25.128 106.634 19.44 99.7222 19.44C92.7382 19.44 87.4822 25.128 87.4822 32.256C87.4822 39.24 92.7382 45 99.7222 45ZM149.221 54.144C143.461 54.144 138.421 52.056 135.469 48.312V72.648H125.821V11.16H135.469V16.776C138.421 12.816 143.389 10.296 149.149 10.296C159.733 10.296 169.885 18.288 169.885 32.256C169.885 46.08 159.373 54.144 149.221 54.144ZM147.637 45.216C154.765 45.216 160.309 39.456 160.309 32.112C160.309 24.84 154.765 19.152 147.637 19.152C140.365 19.152 135.109 24.912 135.109 32.112C135.109 39.384 140.365 45.216 147.637 45.216ZM173.915 53.28V11.16H183.563V16.344C186.371 12.672 190.691 10.296 196.163 10.296C206.747 10.296 212.867 16.848 212.867 28.296V53.28H203.003V29.304C203.003 22.752 199.835 18.72 193.499 18.72C187.955 18.72 183.635 22.752 183.635 30.168V53.28H173.915ZM238.941 54.144C226.773 54.144 217.125 44.352 217.125 32.256C217.125 19.944 226.773 10.296 238.941 10.296C251.037 10.296 260.757 19.944 260.757 32.256C260.757 44.352 251.037 54.144 238.941 54.144ZM238.941 45C245.853 45 251.181 39.24 251.181 32.256C251.181 25.128 245.853 19.44 238.941 19.44C231.957 19.44 226.701 25.128 226.701 32.256C226.701 39.24 231.957 45 238.941 45ZM284.759 54.144C274.607 54.144 264.023 46.08 264.023 32.256C264.023 18.288 274.247 10.296 284.903 10.296C290.375 10.296 295.271 12.456 298.367 16.128V-1.90735e-06H308.159V53.28H298.439V47.808C295.343 51.768 290.303 54.144 284.759 54.144ZM286.343 45.216C293.615 45.216 298.943 39.384 298.943 32.112C298.943 24.912 293.615 19.152 286.343 19.152C279.143 19.152 273.599 24.84 273.599 32.112C273.599 39.456 279.143 45.216 286.343 45.216ZM334.576 54.144C321.328 54.144 312.328 44.496 312.328 32.328C312.328 20.016 321.904 10.296 334.216 10.296C346.744 10.296 355.888 19.512 355.888 31.968V35.64H321.616C322.984 41.616 327.664 45.576 334.576 45.576C340.048 45.576 344.224 42.696 346.24 38.16L354.232 42.768C350.56 49.608 344.08 54.144 334.576 54.144ZM334.216 18.864C328.384 18.864 323.848 22.32 322.12 27.504H346.024C344.584 21.816 340.264 18.864 334.216 18.864Z" fill="#4C42FF"/>
</svg>
